<mxfile host="app.diagrams.net" agent="Mozilla/5.0 (Windows NT 10.0; Win64; x64) AppleWebKit/537.36 (KHTML, like Gecko) Chrome/138.0.0.0 Safari/537.36" version="28.0.7">
  <diagram name="Trang-1" id="VLb1x96hpvXgGk4st1GM">
    <mxGraphModel dx="1042" dy="574" grid="1" gridSize="10" guides="1" tooltips="1" connect="1" arrows="1" fold="1" page="1" pageScale="1" pageWidth="827" pageHeight="1169" math="0" shadow="0">
      <root>
        <mxCell id="0" />
        <mxCell id="1" parent="0" />
        <mxCell id="aKHximTvg-jce_8tGUEw-1" value="&lt;pre style=&quot;font-family: Menlo, &amp;quot;Roboto Mono&amp;quot;, &amp;quot;Courier New&amp;quot;, Courier, monospace, Inter, sans-serif; overflow: auto; padding: 9.144px 13.716px; text-wrap-mode: wrap; word-break: break-all; font-size: 12.573px; text-align: left; margin: 0px !important;&quot;&gt;Hệ thống PVMS&lt;/pre&gt;" style="ellipse;whiteSpace=wrap;html=1;aspect=fixed;" parent="1" vertex="1">
          <mxGeometry x="343" y="260" width="140" height="140" as="geometry" />
        </mxCell>
        <mxCell id="aKHximTvg-jce_8tGUEw-2" value="Khách Hàng" style="rounded=0;whiteSpace=wrap;html=1;" parent="1" vertex="1">
          <mxGeometry x="150" y="70" width="120" height="60" as="geometry" />
        </mxCell>
        <mxCell id="aKHximTvg-jce_8tGUEw-3" value="Nhân Viên" style="rounded=0;whiteSpace=wrap;html=1;" parent="1" vertex="1">
          <mxGeometry y="290" width="120" height="60" as="geometry" />
        </mxCell>
        <mxCell id="aKHximTvg-jce_8tGUEw-4" value="Quản Trị Viên" style="rounded=0;whiteSpace=wrap;html=1;" parent="1" vertex="1">
          <mxGeometry x="250" y="540" width="120" height="60" as="geometry" />
        </mxCell>
        <mxCell id="aKHximTvg-jce_8tGUEw-5" value="Bác Sĩ" style="rounded=0;whiteSpace=wrap;html=1;" parent="1" vertex="1">
          <mxGeometry x="580" y="470" width="120" height="60" as="geometry" />
        </mxCell>
        <mxCell id="aKHximTvg-jce_8tGUEw-6" value="Cổng thanh toán" style="rounded=0;whiteSpace=wrap;html=1;" parent="1" vertex="1">
          <mxGeometry x="680" y="280" width="120" height="60" as="geometry" />
        </mxCell>
        <mxCell id="aKHximTvg-jce_8tGUEw-7" value="Thông báo" style="rounded=0;whiteSpace=wrap;html=1;" parent="1" vertex="1">
          <mxGeometry x="510" y="50" width="120" height="60" as="geometry" />
        </mxCell>
        <mxCell id="aKHximTvg-jce_8tGUEw-14" value="Gửi yêu cầu / Đặt lịch" style="endArrow=classic;html=1;rounded=0;fontFamily=Helvetica;fontSize=12;fontColor=default;exitX=0.75;exitY=1;exitDx=0;exitDy=0;curved=1;" parent="1" source="aKHximTvg-jce_8tGUEw-2" target="aKHximTvg-jce_8tGUEw-1" edge="1">
          <mxGeometry width="50" height="50" relative="1" as="geometry">
            <mxPoint x="390" y="330" as="sourcePoint" />
            <mxPoint x="440" y="280" as="targetPoint" />
            <Array as="points">
              <mxPoint x="350" y="170" />
            </Array>
          </mxGeometry>
        </mxCell>
        <mxCell id="aKHximTvg-jce_8tGUEw-15" value="Xác nhận lịch hẹn&amp;nbsp;" style="endArrow=classic;html=1;rounded=0;fontFamily=Helvetica;fontSize=12;fontColor=default;exitX=0;exitY=0;exitDx=0;exitDy=0;entryX=0.5;entryY=1;entryDx=0;entryDy=0;curved=1;" parent="1" source="aKHximTvg-jce_8tGUEw-1" target="aKHximTvg-jce_8tGUEw-2" edge="1">
          <mxGeometry x="0.377" y="-27" width="50" height="50" relative="1" as="geometry">
            <mxPoint x="390" y="330" as="sourcePoint" />
            <mxPoint x="440" y="280" as="targetPoint" />
            <Array as="points">
              <mxPoint x="230" y="240" />
            </Array>
            <mxPoint as="offset" />
          </mxGeometry>
        </mxCell>
        <mxCell id="aKHximTvg-jce_8tGUEw-16" value="Quản lý lịch hẹn&amp;nbsp;" style="endArrow=classic;html=1;rounded=0;fontFamily=Helvetica;fontSize=12;fontColor=default;exitX=1;exitY=0.5;exitDx=0;exitDy=0;entryX=0.006;entryY=0.611;entryDx=0;entryDy=0;curved=1;entryPerimeter=0;" parent="1" source="aKHximTvg-jce_8tGUEw-3" target="aKHximTvg-jce_8tGUEw-1" edge="1">
          <mxGeometry x="0.0562" y="16" width="50" height="50" relative="1" as="geometry">
            <mxPoint x="390" y="330" as="sourcePoint" />
            <mxPoint x="440" y="280" as="targetPoint" />
            <Array as="points">
              <mxPoint x="210" y="370" />
            </Array>
            <mxPoint as="offset" />
          </mxGeometry>
        </mxCell>
        <mxCell id="aKHximTvg-jce_8tGUEw-17" value="Nhận lịch tiêm" style="endArrow=classic;html=1;rounded=0;fontFamily=Helvetica;fontSize=12;fontColor=default;exitX=1;exitY=1;exitDx=0;exitDy=0;entryX=0.25;entryY=0;entryDx=0;entryDy=0;curved=1;" parent="1" source="aKHximTvg-jce_8tGUEw-1" target="aKHximTvg-jce_8tGUEw-5" edge="1">
          <mxGeometry x="-0.3553" y="7" width="50" height="50" relative="1" as="geometry">
            <mxPoint x="390" y="330" as="sourcePoint" />
            <mxPoint x="440" y="280" as="targetPoint" />
            <Array as="points">
              <mxPoint x="480" y="480" />
            </Array>
            <mxPoint as="offset" />
          </mxGeometry>
        </mxCell>
        <mxCell id="aKHximTvg-jce_8tGUEw-18" value="Trả kết quả" style="endArrow=classic;html=1;rounded=0;fontFamily=Helvetica;fontSize=12;fontColor=default;exitX=0.75;exitY=0;exitDx=0;exitDy=0;entryX=0.947;entryY=0.671;entryDx=0;entryDy=0;entryPerimeter=0;curved=1;" parent="1" source="aKHximTvg-jce_8tGUEw-5" target="aKHximTvg-jce_8tGUEw-1" edge="1">
          <mxGeometry x="0.1846" y="25" width="50" height="50" relative="1" as="geometry">
            <mxPoint x="390" y="330" as="sourcePoint" />
            <mxPoint x="440" y="280" as="targetPoint" />
            <Array as="points">
              <mxPoint x="610" y="380" />
            </Array>
            <mxPoint x="-1" as="offset" />
          </mxGeometry>
        </mxCell>
        <mxCell id="aKHximTvg-jce_8tGUEw-19" value="" style="endArrow=classic;html=1;rounded=0;fontFamily=Helvetica;fontSize=12;fontColor=default;exitX=0.5;exitY=0;exitDx=0;exitDy=0;entryX=0;entryY=1;entryDx=0;entryDy=0;curved=1;" parent="1" source="aKHximTvg-jce_8tGUEw-4" target="aKHximTvg-jce_8tGUEw-1" edge="1">
          <mxGeometry width="50" height="50" relative="1" as="geometry">
            <mxPoint x="260" y="460" as="sourcePoint" />
            <mxPoint x="310" y="410" as="targetPoint" />
            <Array as="points">
              <mxPoint x="270" y="420" />
            </Array>
          </mxGeometry>
        </mxCell>
        <mxCell id="aKHximTvg-jce_8tGUEw-21" value="Quản lý website" style="edgeLabel;html=1;align=center;verticalAlign=middle;resizable=0;points=[];rounded=0;fontFamily=Helvetica;fontSize=12;fontColor=default;fillColor=none;gradientColor=none;" parent="aKHximTvg-jce_8tGUEw-19" vertex="1" connectable="0">
          <mxGeometry x="0.1881" y="-13" relative="1" as="geometry">
            <mxPoint as="offset" />
          </mxGeometry>
        </mxCell>
        <mxCell id="aKHximTvg-jce_8tGUEw-20" value="Tạo báo cáo" style="endArrow=classic;html=1;rounded=0;fontFamily=Helvetica;fontSize=12;fontColor=default;exitX=0.75;exitY=0;exitDx=0;exitDy=0;entryX=0.5;entryY=1;entryDx=0;entryDy=0;curved=1;" parent="1" source="aKHximTvg-jce_8tGUEw-4" target="aKHximTvg-jce_8tGUEw-1" edge="1">
          <mxGeometry x="0.2171" y="16" width="50" height="50" relative="1" as="geometry">
            <mxPoint x="360" y="510" as="sourcePoint" />
            <mxPoint x="410" y="460" as="targetPoint" />
            <Array as="points">
              <mxPoint x="390" y="500" />
            </Array>
            <mxPoint as="offset" />
          </mxGeometry>
        </mxCell>
        <mxCell id="aKHximTvg-jce_8tGUEw-22" value="Xác nhận giao dịch" style="endArrow=classic;html=1;rounded=0;fontFamily=Helvetica;fontSize=12;fontColor=default;exitX=0;exitY=0.25;exitDx=0;exitDy=0;curved=1;entryX=1;entryY=0;entryDx=0;entryDy=0;" parent="1" source="aKHximTvg-jce_8tGUEw-6" target="aKHximTvg-jce_8tGUEw-1" edge="1">
          <mxGeometry x="-0.0964" y="18" width="50" height="50" relative="1" as="geometry">
            <mxPoint x="540" y="270" as="sourcePoint" />
            <mxPoint x="460" y="250" as="targetPoint" />
            <Array as="points">
              <mxPoint x="570" y="240" />
            </Array>
            <mxPoint as="offset" />
          </mxGeometry>
        </mxCell>
        <mxCell id="aKHximTvg-jce_8tGUEw-23" value="Yêu cầu thanh toán" style="endArrow=classic;html=1;rounded=0;fontFamily=Helvetica;fontSize=12;fontColor=default;exitX=0.954;exitY=0.308;exitDx=0;exitDy=0;exitPerimeter=0;entryX=0;entryY=0.5;entryDx=0;entryDy=0;curved=1;" parent="1" source="aKHximTvg-jce_8tGUEw-1" target="aKHximTvg-jce_8tGUEw-6" edge="1">
          <mxGeometry x="0.1505" y="17" width="50" height="50" relative="1" as="geometry">
            <mxPoint x="580" y="350" as="sourcePoint" />
            <mxPoint x="630" y="300" as="targetPoint" />
            <Array as="points">
              <mxPoint x="590" y="330" />
            </Array>
            <mxPoint y="-1" as="offset" />
          </mxGeometry>
        </mxCell>
        <mxCell id="aKHximTvg-jce_8tGUEw-27" value="" style="endArrow=classic;html=1;rounded=0;fontFamily=Helvetica;fontSize=12;fontColor=default;exitX=0.25;exitY=1;exitDx=0;exitDy=0;curved=1;" parent="1" source="aKHximTvg-jce_8tGUEw-2" edge="1">
          <mxGeometry width="50" height="50" relative="1" as="geometry">
            <mxPoint x="60" y="240" as="sourcePoint" />
            <mxPoint x="350" y="300" as="targetPoint" />
            <Array as="points">
              <mxPoint x="140" y="150" />
              <mxPoint x="140" y="250" />
            </Array>
          </mxGeometry>
        </mxCell>
        <mxCell id="aKHximTvg-jce_8tGUEw-28" value="Gửi yêu cầu hỗ trợ" style="edgeLabel;html=1;align=center;verticalAlign=middle;resizable=0;points=[];rounded=0;fontFamily=Helvetica;fontSize=12;fontColor=default;fillColor=none;gradientColor=none;" parent="aKHximTvg-jce_8tGUEw-27" vertex="1" connectable="0">
          <mxGeometry x="0.0286" y="19" relative="1" as="geometry">
            <mxPoint x="-19" y="-34" as="offset" />
          </mxGeometry>
        </mxCell>
        <mxCell id="aKHximTvg-jce_8tGUEw-29" value="Hỗ trợ khách hàng" style="endArrow=classic;html=1;rounded=0;fontFamily=Helvetica;fontSize=12;fontColor=default;entryX=0.02;entryY=0.416;entryDx=0;entryDy=0;exitX=1;exitY=0.25;exitDx=0;exitDy=0;curved=1;entryPerimeter=0;" parent="1" source="aKHximTvg-jce_8tGUEw-3" target="aKHximTvg-jce_8tGUEw-1" edge="1">
          <mxGeometry x="0.0625" y="-3" width="50" height="50" relative="1" as="geometry">
            <mxPoint x="130" y="240" as="sourcePoint" />
            <mxPoint x="180" y="190" as="targetPoint" />
            <Array as="points">
              <mxPoint x="230" y="300" />
            </Array>
            <mxPoint as="offset" />
          </mxGeometry>
        </mxCell>
        <mxCell id="aKHximTvg-jce_8tGUEw-30" value="" style="endArrow=classic;html=1;rounded=0;fontFamily=Helvetica;fontSize=12;fontColor=default;exitX=0.793;exitY=0.106;exitDx=0;exitDy=0;exitPerimeter=0;entryX=0.5;entryY=1;entryDx=0;entryDy=0;curved=1;" parent="1" source="aKHximTvg-jce_8tGUEw-1" target="aKHximTvg-jce_8tGUEw-7" edge="1">
          <mxGeometry width="50" height="50" relative="1" as="geometry">
            <mxPoint x="480" y="220" as="sourcePoint" />
            <mxPoint x="530" y="170" as="targetPoint" />
            <Array as="points">
              <mxPoint x="580" y="210" />
            </Array>
          </mxGeometry>
        </mxCell>
        <mxCell id="aKHximTvg-jce_8tGUEw-31" value="Thông báo lịch tiêm" style="edgeLabel;html=1;align=center;verticalAlign=middle;resizable=0;points=[];rounded=0;fontFamily=Helvetica;fontSize=12;fontColor=default;fillColor=none;gradientColor=none;" parent="aKHximTvg-jce_8tGUEw-30" vertex="1" connectable="0">
          <mxGeometry x="-0.1549" y="11" relative="1" as="geometry">
            <mxPoint as="offset" />
          </mxGeometry>
        </mxCell>
        <mxCell id="aKHximTvg-jce_8tGUEw-32" value="" style="endArrow=classic;html=1;rounded=0;fontFamily=Helvetica;fontSize=12;fontColor=default;exitX=0.75;exitY=1;exitDx=0;exitDy=0;entryX=0.04;entryY=0.718;entryDx=0;entryDy=0;entryPerimeter=0;curved=1;" parent="1" source="aKHximTvg-jce_8tGUEw-3" target="aKHximTvg-jce_8tGUEw-1" edge="1">
          <mxGeometry width="50" height="50" relative="1" as="geometry">
            <mxPoint x="160" y="340" as="sourcePoint" />
            <mxPoint x="210" y="290" as="targetPoint" />
            <Array as="points">
              <mxPoint x="140" y="430" />
            </Array>
          </mxGeometry>
        </mxCell>
        <mxCell id="aKHximTvg-jce_8tGUEw-33" value="Quản lý khách hàng" style="edgeLabel;html=1;align=center;verticalAlign=middle;resizable=0;points=[];rounded=0;fontFamily=Helvetica;fontSize=12;fontColor=default;fillColor=none;gradientColor=none;" parent="aKHximTvg-jce_8tGUEw-32" vertex="1" connectable="0">
          <mxGeometry x="0.0499" y="7" relative="1" as="geometry">
            <mxPoint x="5" y="-11" as="offset" />
          </mxGeometry>
        </mxCell>
        <mxCell id="aKHximTvg-jce_8tGUEw-34" value="Thông báo hệ thống" style="endArrow=classic;html=1;rounded=0;fontFamily=Helvetica;fontSize=12;fontColor=default;exitX=0.621;exitY=0;exitDx=0;exitDy=0;exitPerimeter=0;entryX=0;entryY=1;entryDx=0;entryDy=0;curved=1;" parent="1" source="aKHximTvg-jce_8tGUEw-1" target="aKHximTvg-jce_8tGUEw-7" edge="1">
          <mxGeometry x="0.136" y="-10" width="50" height="50" relative="1" as="geometry">
            <mxPoint x="410" y="230" as="sourcePoint" />
            <mxPoint x="460" y="180" as="targetPoint" />
            <Array as="points">
              <mxPoint x="460" y="170" />
            </Array>
            <mxPoint x="-1" as="offset" />
          </mxGeometry>
        </mxCell>
      </root>
    </mxGraphModel>
  </diagram>
</mxfile>
